# xmcd
# 
# Track frame offsets:
#     150
#     23831
#     41122
#     55887
#     83590
#     101758
#     117744
#     138130
#     153285
#     168647
# 
# Disc length: 2450
# 
# Revision: 4
# Processed by: cddbd v1.5.2PL0 Copyright (c) Steve Scherf et al.
# Submitted via: fre:ac v1.0.31
# 
DISCID=8009900a
DTITLE=Putumayo Presents - Euro Groove
DYEAR=2008
DGENRE=World
TTITLE0=Toufic Farroukh (feat. Jeanne Added) - Destins et Désirs (Lebanon, France)
TTITLE1=Jazzamor - Nuit Magique (Germany)
TTITLE2=Fiamma Fumana - Check In (Italy)
TTITLE3=!DelaDap - Le Shin (Czech Republic, Hungary, Austria)
TTITLE4=Martial - Cette Fille (France)
TTITLE5=Guateque All Stars (feat. Shiva) - Superwhirly (Spain)
TTITLE6=2raumwohnung - Mädchen Mit Plan (Germany)
TTITLE7=Chumbawamba - Jacob's Ladder (England)
TTITLE8=Mystic Diversions - E Pa-Pa (Italy)
TTITLE9=Mouss et Hakim - Mina (France)
EXTD=YEAR: 2008
EXTT0=
EXTT1=
EXTT2=
EXTT3=
EXTT4=
EXTT5=
EXTT6=
EXTT7=
EXTT8=
EXTT9=
PLAYORDER=
